<svg width="377" height="202" viewBox="0 0 377 202" fill="none" xmlns="http://www.w3.org/2000/svg">
<path fill-rule="evenodd" clip-rule="evenodd" d="M31.12 23.808C31.12 28.864 31.184 33.2 31.312 36.816L37.84 37.44C37.744 33.664 37.696 29.984 37.696 26.4C41.6 25.312 44.752 23.616 47.152 21.312C49.584 18.976 50.8 16.224 50.8 13.056C50.8 9.85599 49.68 7.21599 47.44 5.13599C45.232 3.02399 42.704 1.96799 39.856 1.96799C37.04 1.96799 34.288 2.46399 31.6 3.45599C31.28 11.936 31.12 18.72 31.12 23.808ZM44.224 13.296C44.224 14.992 43.632 16.528 42.448 17.904C41.296 19.28 39.712 20.288 37.696 20.928C37.728 16.704 37.824 12.336 37.984 7.82399C39.008 7.66399 39.664 7.58399 39.952 7.58399C41.04 7.58399 42.016 8.11199 42.88 9.16799C43.776 10.224 44.224 11.6 44.224 13.296ZM61.4965 13.632L56.0245 13.104V36.144L61.4965 36.672V13.632ZM61.7845 5.27999L56.4085 4.65599L55.9285 9.98399L61.3045 10.656L61.7845 5.27999ZM77.6882 21.984C77.6882 22.688 77.6562 23.264 77.5922 23.712L82.1523 24.144C82.4402 23.472 82.5843 22.672 82.5843 21.744C82.5843 19.568 81.9922 17.584 80.8083 15.792C79.6562 14 78.2002 13.104 76.4402 13.104C74.6803 13.104 73.2243 13.648 72.0723 14.736C70.9522 15.824 70.1042 17.216 69.5283 18.912C68.5042 22.016 67.9922 25.136 67.9922 28.272C67.9922 31.216 68.7122 33.408 70.1523 34.848C71.6243 36.288 73.2722 37.008 75.0963 37.008C76.9202 37.008 78.4723 36.32 79.7523 34.944C81.0642 33.568 82.1523 31.712 83.0163 29.376L79.4642 26.832C77.7042 30.192 76.3442 31.872 75.3842 31.872C74.2002 31.872 73.6082 30.416 73.6082 27.504C73.6082 25.776 73.8002 23.888 74.1842 21.84C74.6003 19.76 75.2562 18.72 76.1523 18.72C76.6003 18.72 76.9682 19.088 77.2562 19.824C77.5443 20.56 77.6882 21.28 77.6882 21.984ZM88.657 21.6C88.657 28.128 88.721 33.056 88.849 36.384L94.465 36.912C94.337 34.224 94.273 31.104 94.273 27.552C97.793 31.232 100.417 34.416 102.145 37.104L105.793 33.648C104.321 31.12 102.337 28.4 99.841 25.488C102.241 22.192 104.161 18.864 105.601 15.504L101.761 12.144C100.097 15.984 97.601 19.936 94.273 24C94.273 16.736 94.513 9.18399 94.993 1.34399L89.377 0.911987C88.897 8.17599 88.657 15.072 88.657 21.6ZM116.505 18.72C116.921 18.24 117.368 18 117.848 18C118.809 18 119.288 18.96 119.288 20.88C119.288 21.36 119.241 21.968 119.145 22.704L123.512 23.088C123.704 22.096 123.8 21.168 123.8 20.304C123.8 18.16 123.257 16.464 122.169 15.216C121.112 13.936 119.657 13.296 117.8 13.296C115.977 13.296 114.264 14.08 112.664 15.648C111.064 17.184 110.264 18.928 110.264 20.88C110.264 22.8 110.713 24.288 111.608 25.344C112.505 26.4 113.736 27.36 115.304 28.224C116.776 29.088 117.512 30.032 117.512 31.056C117.512 31.536 117.337 31.92 116.984 32.208C116.632 32.464 116.216 32.592 115.736 32.592C114.328 32.592 112.984 31.488 111.704 29.28L109.112 32.208C109.944 33.584 111.033 34.736 112.376 35.664C113.753 36.56 115.288 37.008 116.984 37.008C118.68 37.008 120.201 36.448 121.545 35.328C122.921 34.208 123.608 32.752 123.608 30.96C123.608 29.136 122.952 27.648 121.641 26.496C121 25.952 120.44 25.536 119.961 25.248C119.512 24.928 118.872 24.528 118.04 24.048C117.241 23.536 116.68 23.024 116.36 22.512C116.073 22 115.928 21.36 115.928 20.592C115.928 19.792 116.12 19.168 116.505 18.72ZM0 50.5H171V85.75V123.5V161.25V196.5H0V201.5H173.5H176V199V161.25V126H377V121H176V85.75V48V45.5H173.5H0V50.5ZM71.208 153.976V159.88C67.624 159.88 64.264 159.992 61.128 160.216C61.064 161.144 61 162.792 60.936 165.16C60.904 167.496 60.872 168.936 60.84 169.48C64.424 169 67.304 168.76 69.48 168.76L70.44 174.04C66.856 174.136 63.64 174.36 60.792 174.712C60.792 179.704 60.856 184.104 60.984 187.912L54.504 187.192C54.44 182.008 54.408 177.192 54.408 172.744C54.408 168.296 54.664 162.456 55.176 155.224C60.648 154.392 65.992 153.976 71.208 153.976ZM80.418 178.36C80.418 181.976 81.218 183.784 82.818 183.784C83.522 183.784 84.114 182.776 84.594 180.76C85.074 178.712 85.314 176.76 85.314 174.904C85.314 170.808 84.642 168.76 83.298 168.76C82.434 168.76 81.73 169.864 81.186 172.072C80.674 174.248 80.418 176.344 80.418 178.36ZM74.802 177.928C74.802 174.952 75.41 172.04 76.626 169.192C77.266 167.752 78.162 166.584 79.314 165.688C80.498 164.76 81.81 164.296 83.25 164.296C84.69 164.296 85.922 164.632 86.946 165.304C88.002 165.944 88.802 166.808 89.346 167.896C90.402 170.04 90.93 172.376 90.93 174.904C90.93 178.392 90.21 181.496 88.77 184.216C87.362 186.904 85.378 188.248 82.818 188.248C77.474 188.248 74.802 184.808 74.802 177.928ZM105.194 169.672C103.85 169.672 102.842 171.368 102.17 174.76C102.234 177 102.266 179.144 102.266 181.192C102.266 183.24 102.202 185.544 102.074 188.104L96.5059 187.624C96.6019 182.92 96.6499 180.328 96.6499 179.848C96.6499 173.928 96.3619 169.4 95.7859 166.264L99.3859 166.648C99.6099 167.576 99.8659 168.392 100.154 169.096C101.722 165.736 103.306 164.056 104.906 164.056C106.218 164.056 107.37 164.632 108.362 165.784L107.114 170.2C106.602 169.848 105.962 169.672 105.194 169.672ZM197.12 95.808C197.12 100.864 197.184 105.2 197.312 108.816L203.84 109.44C203.744 105.664 203.696 101.984 203.696 98.4C207.6 97.312 210.752 95.616 213.152 93.312C215.584 90.976 216.8 88.224 216.8 85.056C216.8 81.856 215.68 79.216 213.44 77.136C211.232 75.024 208.704 73.968 205.856 73.968C203.04 73.968 200.288 74.464 197.6 75.456C197.28 83.936 197.12 90.72 197.12 95.808ZM210.224 85.296C210.224 86.992 209.632 88.528 208.448 89.904C207.296 91.28 205.712 92.288 203.696 92.928C203.728 88.704 203.824 84.336 203.984 79.824C205.008 79.664 205.664 79.584 205.952 79.584C207.04 79.584 208.016 80.112 208.88 81.168C209.776 82.224 210.224 83.6 210.224 85.296ZM227.4 95.232C227.4 88.736 227.641 81.44 228.12 73.344L222.505 72.912C222.025 80.976 221.785 88.08 221.785 94.224C221.785 100.336 221.848 105.056 221.977 108.384L227.641 108.912C227.48 106.288 227.4 101.728 227.4 95.232ZM237.4 87.504C236.056 89.232 235.144 91.344 234.664 93.84L239.08 94.272C239.304 93.184 239.656 92.224 240.136 91.392C240.648 90.528 241.208 90.096 241.816 90.096C243.032 90.096 243.64 91.36 243.64 93.888V95.184C241.112 95.248 238.872 95.984 236.92 97.392C235 98.8 234.04 100.48 234.04 102.432C234.04 104.384 234.552 105.888 235.576 106.944C236.6 107.968 237.896 108.48 239.464 108.48C241.032 108.48 242.568 108.048 244.072 107.184L244.456 108.72L248.488 109.056C248.872 103.2 249.064 98.608 249.064 95.28C249.064 91.952 248.536 89.392 247.48 87.6C246.456 85.776 244.856 84.864 242.68 84.864C240.504 84.864 238.744 85.744 237.4 87.504ZM240.76 104.256C239.544 104.256 238.936 103.744 238.936 102.72C238.936 102.048 239.32 101.408 240.088 100.8C240.856 100.16 241.992 99.776 243.496 99.648L243.4 103.68C242.472 104.064 241.592 104.256 240.76 104.256ZM271.943 86.64L267.335 83.952C265.863 88.976 264.391 94.912 262.919 101.76C261.863 97.6 261.095 92.576 260.615 86.688L255.239 86.16C256.039 95.12 257.975 102.544 261.047 108.432C259.863 112.88 259.015 116.368 258.503 118.896L263.783 119.376C266.567 105.776 269.287 94.864 271.943 86.64ZM283.174 104.784C281.574 104.784 280.774 102.976 280.774 99.36C280.774 97.344 281.03 95.248 281.542 93.072C282.086 90.864 282.79 89.76 283.654 89.76C284.998 89.76 285.67 91.808 285.67 95.904C285.67 97.76 285.43 99.712 284.95 101.76C284.47 103.776 283.878 104.784 283.174 104.784ZM276.982 90.192C275.766 93.04 275.158 95.952 275.158 98.928C275.158 105.808 277.83 109.248 283.174 109.248C285.734 109.248 287.718 107.904 289.126 105.216C290.566 102.496 291.286 99.392 291.286 95.904C291.286 93.376 290.758 91.04 289.702 88.896C289.158 87.808 288.358 86.944 287.302 86.304C286.278 85.632 285.046 85.296 283.606 85.296C282.166 85.296 280.854 85.76 279.67 86.688C278.518 87.584 277.622 88.752 276.982 90.192ZM299.406 76.464C298.126 78.928 297.486 82.32 297.486 86.64V88.752C296.014 89.008 295.118 89.184 294.798 89.28L295.806 93.6C296.126 93.504 296.702 93.392 297.534 93.264C297.63 98.832 297.806 103.824 298.062 108.24L303.678 108.816C303.326 102.832 303.15 97.392 303.15 92.496C304.398 92.336 306.126 92.256 308.334 92.256V87.792C306.99 87.792 305.246 87.872 303.102 88.032V86.64C303.102 81.2 303.582 78.48 304.542 78.48C305.662 78.48 306.222 80.272 306.222 83.856L310.686 84.336C310.686 80.72 310.142 77.888 309.054 75.84C307.998 73.76 306.446 72.72 304.398 72.72C302.382 72.72 300.718 73.968 299.406 76.464ZM315.587 76.464C314.307 78.928 313.667 82.32 313.667 86.64V88.752C312.195 89.008 311.299 89.184 310.979 89.28L311.987 93.6C312.307 93.504 312.883 93.392 313.715 93.264C313.811 98.832 313.987 103.824 314.243 108.24L319.859 108.816C319.507 102.832 319.331 97.392 319.331 92.496C320.579 92.336 322.307 92.256 324.515 92.256V87.792C323.171 87.792 321.427 87.872 319.283 88.032V86.64C319.283 81.2 319.763 78.48 320.723 78.48C321.843 78.48 322.403 80.272 322.403 83.856L326.867 84.336C326.867 80.72 326.323 77.888 325.235 75.84C324.179 73.76 322.627 72.72 320.579 72.72C318.563 72.72 316.899 73.968 315.587 76.464ZM335.033 90.72C335.449 90.24 335.897 90 336.377 90C337.337 90 337.817 90.96 337.817 92.88C337.817 93.36 337.769 93.968 337.673 94.704L342.041 95.088C342.233 94.096 342.329 93.168 342.329 92.304C342.329 90.16 341.785 88.464 340.697 87.216C339.641 85.936 338.185 85.296 336.329 85.296C334.505 85.296 332.793 86.08 331.193 87.648C329.593 89.184 328.793 90.928 328.793 92.88C328.793 94.8 329.241 96.288 330.137 97.344C331.033 98.4 332.265 99.36 333.833 100.224C335.305 101.088 336.041 102.032 336.041 103.056C336.041 103.536 335.865 103.92 335.513 104.208C335.161 104.464 334.745 104.592 334.265 104.592C332.857 104.592 331.513 103.488 330.233 101.28L327.641 104.208C328.473 105.584 329.561 106.736 330.905 107.664C332.281 108.56 333.817 109.008 335.513 109.008C337.209 109.008 338.729 108.448 340.073 107.328C341.449 106.208 342.137 104.752 342.137 102.96C342.137 101.136 341.481 99.648 340.169 98.496C339.529 97.952 338.969 97.536 338.489 97.248C338.041 96.928 337.401 96.528 336.569 96.048C335.769 95.536 335.209 95.024 334.889 94.512C334.601 94 334.457 93.36 334.457 92.592C334.457 91.792 334.649 91.168 335.033 90.72Z" fill="black"/>
</svg>
