<svg width="968" height="650" viewBox="0 0 968 650" fill="none" xmlns="http://www.w3.org/2000/svg">
<rect width="968" height="650" rx="52" fill="#3080E8" fill-opacity="0.17"/>
<g filter="url(#filter0_d)">
<path d="M43 129.5V50C43 47.2386 45.2386 45 48 45H130H213.802C215.752 45 217.523 46.1333 218.341 47.9032L303.473 232.2C305.259 236.067 310.753 236.073 312.547 232.21L398.186 47.8294C398.99 46.0978 400.71 44.9754 402.619 44.9367L448.75 44H493C495.761 44 498 46.2386 498 49V325.25V600C498 602.761 495.761 605 493 605H448.75L404.551 605.449C401.77 605.477 399.5 603.23 399.5 600.449V302.39C399.5 297.499 393.202 295.517 390.401 299.527L312.11 411.615C310.117 414.469 305.891 414.463 303.905 411.605L226.106 299.609C223.312 295.587 217 297.564 217 302.462V600.5C217 603.261 214.761 605.5 212 605.5H167.75H123.5C120.739 605.5 118.5 603.261 118.5 600.5V139.5C118.5 136.739 116.261 134.5 113.5 134.5H48C45.2386 134.5 43 132.261 43 129.5Z" fill="#3080E8"/>
<path d="M448.75 604L448.74 604L404.541 604.449C402.316 604.471 400.5 602.674 400.5 600.449V302.39C400.5 296.521 392.942 294.143 389.581 298.954L311.291 411.043C309.696 413.326 306.315 413.321 304.726 411.034L226.928 299.039C223.575 294.212 216 296.585 216 302.462V600.5C216 602.709 214.209 604.5 212 604.5H167.75H123.5C121.291 604.5 119.5 602.709 119.5 600.5V139.5C119.5 136.186 116.814 133.5 113.5 133.5H48C45.7909 133.5 44 131.709 44 129.5V50C44 47.7909 45.7909 46 48 46H130H213.802C215.362 46 216.779 46.9066 217.433 48.3226L302.565 232.62C304.709 237.26 311.301 237.267 313.454 232.631L399.093 48.2507C399.736 46.8654 401.112 45.9675 402.639 45.9365L448.75 45H448.76H493C495.209 45 497 46.7909 497 49V325.25V600C497 602.209 495.209 604 493 604L448.75 604Z" stroke="#2460AD" stroke-width="2"/>
</g>
<g filter="url(#filter1_d)">
<path fill-rule="evenodd" clip-rule="evenodd" d="M573 601C573 603.761 575.239 606 578 606H659.37C662.132 606 664.37 603.846 664.37 601.084C664.37 577.544 664.37 474.277 664.37 396.595C664.37 391.559 670.975 389.687 673.623 393.971L803.205 603.629C804.116 605.103 805.726 606 807.459 606H920C922.761 606 925 603.761 925 601V522.368C925 519.607 922.761 517.368 920 517.368H852.975C851.198 517.368 849.555 516.426 848.658 514.892L735.27 321C749.893 321 772.716 321 772.716 321C818.485 315.5 900.035 267.4 900.035 183C900.035 98.6 818.485 50.3333 772.716 45H664.37H578C575.239 45 573 47.2386 573 50V601ZM664.37 183V130H715.797C717.933 130 720.398 129.926 723.111 129.844C748.934 129.068 797.182 127.618 797.182 183C797.182 238.166 752.691 236.942 724.415 236.165C721.322 236.08 718.423 236 715.797 236H664.37V183Z" fill="#3080E8"/>
<path d="M852.874 280.841C826.925 303.961 795.314 317.261 772.656 320H772.65H772.642H772.633H772.624H772.614H772.603H772.592H772.581H772.569H772.557H772.544H772.53H772.517H772.502H772.487H772.472H772.456H772.44H772.423H772.406H772.389H772.37H772.352H772.333H772.313H772.293H772.273H772.252H772.23H772.208H772.186H772.163H772.14H772.116H772.092H772.068H772.043H772.017H771.991H771.965H771.938H771.911H771.883H771.855H771.826H771.797H771.767H771.737H771.707H771.676H771.645H771.613H771.581H771.549H771.516H771.482H771.449H771.414H771.38H771.345H771.309H771.273H771.237H771.2H771.163H771.126H771.088H771.049H771.01H770.971H770.932H770.892H770.851H770.81H770.769H770.728H770.686H770.643H770.6H770.557H770.514H770.47H770.425H770.381H770.336H770.29H770.244H770.198H770.151H770.104H770.057H770.009H769.961H769.912H769.864H769.814H769.765H769.715H769.664H769.614H769.563H769.511H769.459H769.407H769.355H769.302H769.249H769.195H769.141H769.087H769.032H768.977H768.922H768.866H768.81H768.754H768.697H768.64H768.583H768.525H768.467H768.408H768.35H768.291H768.231H768.172H768.112H768.051H767.99H767.929H767.868H767.807H767.745H767.682H767.62H767.557H767.494H767.43H767.366H767.302H767.238H767.173H767.108H767.042H766.977H766.911H766.844H766.778H766.711H766.644H766.576H766.509H766.441H766.372H766.304H766.235H766.165H766.096H766.026H765.956H765.886H765.815H765.744H765.673H765.602H765.53H765.458H765.386H765.313H765.241H765.168H765.094H765.021H764.947H764.873H764.798H764.724H764.649H764.574H764.498H764.423H764.347H764.271H764.194H764.118H764.041H763.964H763.887H763.809H763.731H763.653H763.575H763.496H763.417H763.338H763.259H763.18H763.1H763.02H762.94H762.86H762.779H762.698H762.617H762.536H762.454H762.373H762.291H762.209H762.126H762.044H761.961H761.878H761.795H761.712H761.628H761.544H761.46H761.376H761.292H761.207H761.123H761.038H760.952H760.867H760.782H760.696H760.61H760.524H760.438H760.351H760.264H760.178H760.091H760.004H759.916H759.829H759.741H759.653H759.565H759.477H759.389H759.3H759.211H759.122H759.033H758.944H758.855H758.765H758.676H758.586H758.496H758.406H758.316H758.225H758.135H758.044H757.953H757.862H757.771H757.68H757.588H757.497H757.405H757.313H757.221H757.129H757.037H756.944H756.852H756.759H756.666H756.574H756.481H756.388H756.294H756.201H756.107H756.014H755.92H755.826H755.732H755.638H755.544H755.45H755.356H755.261H755.167H755.072H754.977H754.882H754.787H754.692H754.597H754.502H754.406H754.311H754.216H754.12H754.024H753.928H753.833H753.737H753.641H753.544H753.448H753.352H753.256H753.159H753.063H752.966H752.869H752.773H752.676H752.579H752.482H752.385H752.288H752.191H752.094H751.997H751.9H751.802H751.705H751.607H751.51H751.412H751.315H751.217H751.12H751.022H750.924H750.826H750.728H750.631H750.533H750.435H750.337H750.239H750.141H750.043H749.945H749.846H749.748H749.65H749.552H749.454H749.355H749.257H749.159H749.061H748.962H748.864H748.766H748.667H748.569H748.471H748.372H748.274H748.175H748.077H747.979H747.88H747.782H747.683H747.585H747.487H747.388H747.29H747.192H747.093H746.995H746.897H746.798H746.7H746.602H746.504H746.405H746.307H746.209H746.111H746.013H745.915H745.817H745.719H745.621H745.523H745.425H745.327H745.229H745.131H745.034H744.936H744.838H744.74H744.643H744.545H744.448H744.35H744.253H744.156H744.058H743.961H743.864H743.767H743.67H743.573H743.476H743.379H743.282H743.186H743.089H742.992H742.896H742.799H742.703H742.607H742.51H742.414H742.318H742.222H742.126H742.03H741.935H741.839H741.744H741.648H741.553H741.457H741.362H741.267H741.172H741.077H740.982H740.888H740.793H740.699H740.604H740.51H740.416H740.322H740.228H740.134H740.04H739.946H739.853H739.76H739.666H739.573H739.48H739.387H739.294H739.202H739.109H739.017H738.924H738.832H738.74H738.648H738.557H738.465H738.374H738.282H738.191H738.1H738.009H737.918H737.828H737.737H737.647H737.557H737.467H737.377H737.287H737.198H737.108H737.019H736.93H736.841H736.752H736.664H736.575H736.487H736.399H736.311H736.223H736.136H736.048H735.961H735.874H735.787H735.7H735.614H735.527H735.441H735.355H735.27H733.526L734.406 321.505L847.795 515.397C848.871 517.237 850.843 518.368 852.975 518.368H920C922.209 518.368 924 520.159 924 522.368V601C924 603.209 922.209 605 920 605H807.459C806.072 605 804.785 604.282 804.056 603.103L674.474 393.445C671.298 388.307 663.37 390.548 663.37 396.595V397.051V397.507V397.963V398.42V398.878V399.336V399.795V400.255V400.715V401.175V401.636V402.098V402.56V403.023V403.486V403.949V404.414V404.878V405.344V405.809V406.275V406.742V407.209V407.677V408.145V408.614V409.083V409.552V410.022V410.492V410.963V411.435V411.906V412.378V412.851V413.324V413.797V414.271V414.745V415.22V415.695V416.17V416.646V417.122V417.599V418.076V418.553V419.031V419.509V419.987V420.466V420.945V421.425V421.904V422.384V422.865V423.346V423.827V424.308V424.79V425.272V425.754V426.237V426.719V427.203V427.686V428.17V428.654V429.138V429.622V430.107V430.592V431.077V431.563V432.049V432.535V433.021V433.507V433.994V434.481V434.968V435.455V435.942V436.43V436.918V437.406V437.894V438.382V438.871V439.36V439.849V440.338V440.827V441.316V441.806V442.295V442.785V443.275V443.765V444.255V444.745V445.236V445.726V446.217V446.707V447.198V447.689V448.18V448.671V449.162V449.653V450.144V450.636V451.127V451.618V452.11V452.601V453.093V453.584V454.076V454.567V455.059V455.55V456.042V456.533V457.025V457.517V458.008V458.5V458.991V459.483V459.974V460.466V460.957V461.448V461.94V462.431V462.922V463.413V463.904V464.395V464.886V465.377V465.868V466.358V466.849V467.339V467.83V468.32V468.81V469.3V469.79V470.28V470.769V471.259V471.748V472.237V472.726V473.215V473.704V474.192V474.68V475.169V475.657V476.144V476.632V477.119V477.607V478.094V478.58V479.067V479.553V480.04V480.525V481.011V481.497V481.982V482.467V482.951V483.436V483.92V484.404V484.888V485.371V485.854V486.337V486.819V487.302V487.783V488.265V488.746V489.227V489.708V490.188V490.668V491.148V491.627V492.106V492.585V493.063V493.541V494.019V494.496V494.973V495.449V495.926V496.401V496.877V497.352V497.826V498.3V498.774V499.247V499.72V500.193V500.665V501.136V501.607V502.078V502.548V503.018V503.488V503.957V504.425V504.893V505.361V505.828V506.294V506.76V507.226V507.691V508.156V508.62V509.083V509.546V510.009V510.471V510.932V511.393V511.854V512.313V512.773V513.232V513.69V514.147V514.604V515.061V515.517V515.972V516.427V516.881V517.335V517.788V518.24V518.692V519.143V519.593V520.043V520.492V520.941V521.389V521.836V522.283V522.729V523.174V523.619V524.063V524.507V524.949V525.391V525.833V526.273V526.713V527.152V527.591V528.029V528.466V528.902V529.338V529.773V530.207V530.641V531.073V531.505V531.937V532.367V532.797V533.226V533.654V534.081V534.508V534.934V535.359V535.783V536.207V536.629V537.051V537.472V537.893V538.312V538.731V539.148V539.565V539.981V540.397V540.811V541.224V541.637V542.049V542.46V542.87V543.279V543.687V544.095V544.501V544.907V545.312V545.715V546.118V546.52V546.921V547.321V547.721V548.119V548.516V548.913V549.308V549.703V550.096V550.489V550.88V551.271V551.66V552.049V552.437V552.823V553.209V553.594V553.978V554.36V554.742V555.122V555.502V555.881V556.258V556.635V557.01V557.385V557.758V558.13V558.501V558.872V559.241V559.609V559.976V560.342V560.706V561.07V561.433V561.794V562.154V562.514V562.872V563.229V563.585V563.939V564.293V564.646V564.997V565.347V565.696V566.044V566.391V566.736V567.08V567.424V567.766V568.106V568.446V568.784V569.121V569.457V569.792V570.126V570.458V570.789V571.119V571.448V571.775V572.101V572.426V572.75V573.072V573.393V573.713V574.032V574.349V574.665V574.98V575.293V575.605V575.916V576.226V576.534V576.841V577.146V577.451V577.753V578.055V578.355V578.654V578.952V579.248V579.543V579.836V580.128V580.419V580.708V580.996V581.283V581.568V581.852V582.134V582.415V582.695V582.973V583.25V583.525V583.799V584.072V584.343V584.612V584.88V585.147V585.412V585.676V585.938V586.199V586.458V586.716V586.973V587.227V587.481V587.733V587.983V588.232V588.479V588.725V588.969V589.212V589.453V589.693V589.931V590.168V590.403V590.637V590.869V591.099V591.328V591.555V591.781V592.005V592.227V592.448V592.667V592.885V593.101V593.316V593.529V593.74V593.949V594.157V594.364V594.568V594.771V594.973V595.173V595.371V595.567V595.762V595.955V596.146V596.336V596.524V596.71V596.895V597.078V597.259V597.439V597.617V597.793V597.967V598.14V598.31V598.48V598.647V598.813V598.977V599.139V599.299V599.458V599.615V599.77V599.923V600.074V600.224V600.372V600.518V600.662V600.805V600.945V601.084C663.37 603.271 661.602 605 659.37 605H578C575.791 605 574 603.209 574 601V50C574 47.7909 575.791 46 578 46H664.37H772.658C795.313 48.6561 826.923 61.9544 852.873 85.0963C878.825 108.239 899.035 141.152 899.035 183C899.035 224.848 878.825 257.719 852.874 280.841ZM664.37 129H663.37V130V183V236V237H664.37H715.797C718.406 237 721.291 237.079 724.387 237.164L724.492 237.167C738.566 237.554 756.943 238.06 771.807 231.475C779.292 228.16 785.909 223.04 790.644 215.207C795.374 207.382 798.182 196.924 798.182 183C798.182 169.008 795.133 158.515 790.08 150.679C785.024 142.839 778.012 137.736 770.219 134.442C754.728 127.893 736.033 128.455 723.165 128.842L723.081 128.845C720.364 128.926 717.915 129 715.797 129H664.37Z" stroke="#2460AD" stroke-width="2"/>
</g>
<defs>
<filter id="filter0_d" x="35" y="36" width="475" height="581.5" filterUnits="userSpaceOnUse" color-interpolation-filters="sRGB">
<feFlood flood-opacity="0" result="BackgroundImageFix"/>
<feColorMatrix in="SourceAlpha" type="matrix" values="0 0 0 0 0 0 0 0 0 0 0 0 0 0 0 0 0 0 127 0"/>
<feOffset dx="2" dy="2"/>
<feGaussianBlur stdDeviation="5"/>
<feColorMatrix type="matrix" values="0 0 0 0 0 0 0 0 0 0 0 0 0 0 0 0 0 0 0.2 0"/>
<feBlend mode="normal" in2="BackgroundImageFix" result="effect1_dropShadow"/>
<feBlend mode="normal" in="SourceGraphic" in2="effect1_dropShadow" result="shape"/>
</filter>
<filter id="filter1_d" x="565" y="37" width="372" height="581" filterUnits="userSpaceOnUse" color-interpolation-filters="sRGB">
<feFlood flood-opacity="0" result="BackgroundImageFix"/>
<feColorMatrix in="SourceAlpha" type="matrix" values="0 0 0 0 0 0 0 0 0 0 0 0 0 0 0 0 0 0 127 0"/>
<feOffset dx="2" dy="2"/>
<feGaussianBlur stdDeviation="5"/>
<feColorMatrix type="matrix" values="0 0 0 0 0 0 0 0 0 0 0 0 0 0 0 0 0 0 0.2 0"/>
<feBlend mode="normal" in2="BackgroundImageFix" result="effect1_dropShadow"/>
<feBlend mode="normal" in="SourceGraphic" in2="effect1_dropShadow" result="shape"/>
</filter>
</defs>
</svg>
